<svg id="visual" viewBox="0 0 900 600" width="900" height="600" xmlns="http://www.w3.org/2000/svg" xmlns:xlink="http://www.w3.org/1999/xlink" version="1.1"><rect x="0" y="0" width="900" height="600" fill="#FFFFFF"></rect><defs><linearGradient id="grad1_0" x1="33.3%" y1="0%" x2="100%" y2="100%"><stop offset="20%" stop-color="#c4e2fa" stop-opacity="1"></stop><stop offset="80%" stop-color="#c4e2fa" stop-opacity="1"></stop></linearGradient></defs><defs><linearGradient id="grad1_1" x1="33.3%" y1="0%" x2="100%" y2="100%"><stop offset="20%" stop-color="#c4e2fa" stop-opacity="1"></stop><stop offset="80%" stop-color="#cde6fb" stop-opacity="1"></stop></linearGradient></defs><defs><linearGradient id="grad1_2" x1="33.3%" y1="0%" x2="100%" y2="100%"><stop offset="20%" stop-color="#d5eafb" stop-opacity="1"></stop><stop offset="80%" stop-color="#cde6fb" stop-opacity="1"></stop></linearGradient></defs><defs><linearGradient id="grad1_3" x1="33.3%" y1="0%" x2="100%" y2="100%"><stop offset="20%" stop-color="#d5eafb" stop-opacity="1"></stop><stop offset="80%" stop-color="#deeefc" stop-opacity="1"></stop></linearGradient></defs><defs><linearGradient id="grad1_4" x1="33.3%" y1="0%" x2="100%" y2="100%"><stop offset="20%" stop-color="#e6f2fd" stop-opacity="1"></stop><stop offset="80%" stop-color="#deeefc" stop-opacity="1"></stop></linearGradient></defs><defs><linearGradient id="grad1_5" x1="33.3%" y1="0%" x2="100%" y2="100%"><stop offset="20%" stop-color="#e6f2fd" stop-opacity="1"></stop><stop offset="80%" stop-color="#eff7fe" stop-opacity="1"></stop></linearGradient></defs><defs><linearGradient id="grad1_6" x1="33.3%" y1="0%" x2="100%" y2="100%"><stop offset="20%" stop-color="#f7fbfe" stop-opacity="1"></stop><stop offset="80%" stop-color="#eff7fe" stop-opacity="1"></stop></linearGradient></defs><defs><linearGradient id="grad1_7" x1="33.3%" y1="0%" x2="100%" y2="100%"><stop offset="20%" stop-color="#f7fbfe" stop-opacity="1"></stop><stop offset="80%" stop-color="#ffffff" stop-opacity="1"></stop></linearGradient></defs><defs><linearGradient id="grad2_0" x1="0%" y1="0%" x2="66.7%" y2="100%"><stop offset="20%" stop-color="#c4e2fa" stop-opacity="1"></stop><stop offset="80%" stop-color="#c4e2fa" stop-opacity="1"></stop></linearGradient></defs><defs><linearGradient id="grad2_1" x1="0%" y1="0%" x2="66.7%" y2="100%"><stop offset="20%" stop-color="#cde6fb" stop-opacity="1"></stop><stop offset="80%" stop-color="#c4e2fa" stop-opacity="1"></stop></linearGradient></defs><defs><linearGradient id="grad2_2" x1="0%" y1="0%" x2="66.7%" y2="100%"><stop offset="20%" stop-color="#cde6fb" stop-opacity="1"></stop><stop offset="80%" stop-color="#d5eafb" stop-opacity="1"></stop></linearGradient></defs><defs><linearGradient id="grad2_3" x1="0%" y1="0%" x2="66.7%" y2="100%"><stop offset="20%" stop-color="#deeefc" stop-opacity="1"></stop><stop offset="80%" stop-color="#d5eafb" stop-opacity="1"></stop></linearGradient></defs><defs><linearGradient id="grad2_4" x1="0%" y1="0%" x2="66.7%" y2="100%"><stop offset="20%" stop-color="#deeefc" stop-opacity="1"></stop><stop offset="80%" stop-color="#e6f2fd" stop-opacity="1"></stop></linearGradient></defs><defs><linearGradient id="grad2_5" x1="0%" y1="0%" x2="66.7%" y2="100%"><stop offset="20%" stop-color="#eff7fe" stop-opacity="1"></stop><stop offset="80%" stop-color="#e6f2fd" stop-opacity="1"></stop></linearGradient></defs><defs><linearGradient id="grad2_6" x1="0%" y1="0%" x2="66.7%" y2="100%"><stop offset="20%" stop-color="#eff7fe" stop-opacity="1"></stop><stop offset="80%" stop-color="#f7fbfe" stop-opacity="1"></stop></linearGradient></defs><defs><linearGradient id="grad2_7" x1="0%" y1="0%" x2="66.7%" y2="100%"><stop offset="20%" stop-color="#ffffff" stop-opacity="1"></stop><stop offset="80%" stop-color="#f7fbfe" stop-opacity="1"></stop></linearGradient></defs><g transform="translate(900, 0)"><path d="M0 459.7C-86 450.9 -172.1 442.2 -229.9 398.1C-287.6 354.1 -317.1 274.7 -350.7 202.5C-384.3 130.3 -422 65.1 -459.7 0L0 0Z" fill="#fbfdff"></path><path d="M0 402.2C-75.3 394.6 -150.6 386.9 -201.1 348.4C-251.7 309.8 -277.5 240.4 -306.9 177.2C-336.3 114 -369.3 57 -402.2 0L0 0Z" fill="#f3f9fe"></path><path d="M0 344.8C-64.5 338.2 -129.1 331.6 -172.4 298.6C-215.7 265.6 -237.9 206.1 -263.1 151.9C-288.3 97.7 -316.5 48.8 -344.8 0L0 0Z" fill="#eaf5fd"></path><path d="M0 287.3C-53.8 281.8 -107.5 276.4 -143.7 248.8C-179.8 221.3 -198.2 171.7 -219.2 126.6C-240.2 81.4 -263.8 40.7 -287.3 0L0 0Z" fill="#e2f0fd"></path><path d="M0 229.9C-43 225.5 -86 221.1 -114.9 199.1C-143.8 177 -158.6 137.4 -175.4 101.3C-192.2 65.1 -211 32.6 -229.9 0L0 0Z" fill="#daecfc"></path><path d="M0 172.4C-32.3 169.1 -64.5 165.8 -86.2 149.3C-107.9 132.8 -118.9 103 -131.5 75.9C-144.1 48.8 -158.3 24.4 -172.4 0L0 0Z" fill="#d1e8fb"></path><path d="M0 114.9C-21.5 112.7 -43 110.5 -57.5 99.5C-71.9 88.5 -79.3 68.7 -87.7 50.6C-96.1 32.6 -105.5 16.3 -114.9 0L0 0Z" fill="#c8e4fa"></path><path d="M0 57.5C-10.8 56.4 -21.5 55.3 -28.7 49.8C-36 44.3 -39.6 34.3 -43.8 25.3C-48 16.3 -52.8 8.1 -57.5 0L0 0Z" fill="#c4e2fa"></path></g><g transform="translate(0, 600)"><path d="M0 -459.7C84 -449.7 167.9 -439.8 229.9 -398.1C291.8 -356.5 331.7 -283.1 366.3 -211.5C401 -139.9 430.3 -69.9 459.7 0L0 0Z" fill="#fbfdff"></path><path d="M0 -402.2C73.5 -393.5 146.9 -384.8 201.1 -348.4C255.3 -311.9 290.2 -247.7 320.5 -185.1C350.8 -122.4 376.5 -61.2 402.2 0L0 0Z" fill="#f3f9fe"></path><path d="M0 -344.8C63 -337.3 125.9 -329.8 172.4 -298.6C218.8 -267.4 248.8 -212.4 274.7 -158.6C300.7 -104.9 322.8 -52.4 344.8 0L0 0Z" fill="#eaf5fd"></path><path d="M0 -287.3C52.5 -281.1 105 -274.9 143.7 -248.8C182.4 -222.8 207.3 -177 229 -132.2C250.6 -87.4 269 -43.7 287.3 0L0 0Z" fill="#e2f0fd"></path><path d="M0 -229.9C42 -224.9 84 -219.9 114.9 -199.1C145.9 -178.2 165.8 -141.6 183.2 -105.8C200.5 -69.9 215.2 -35 229.9 0L0 0Z" fill="#daecfc"></path><path d="M0 -172.4C31.5 -168.7 63 -164.9 86.2 -149.3C109.4 -133.7 124.4 -106.2 137.4 -79.3C150.4 -52.4 161.4 -26.2 172.4 0L0 0Z" fill="#d1e8fb"></path><path d="M0 -114.9C21 -112.4 42 -109.9 57.5 -99.5C72.9 -89.1 82.9 -70.8 91.6 -52.9C100.2 -35 107.6 -17.5 114.9 0L0 0Z" fill="#c8e4fa"></path><path d="M0 -57.5C10.5 -56.2 21 -55 28.7 -49.8C36.5 -44.6 41.5 -35.4 45.8 -26.4C50.1 -17.5 53.8 -8.7 57.5 0L0 0Z" fill="#c4e2fa"></path></g></svg>