<svg id="visual" viewBox="0 0 900 600" width="900" height="600" xmlns="http://www.w3.org/2000/svg" xmlns:xlink="http://www.w3.org/1999/xlink" version="1.1"><g transform="translate(950.9677824185488 76.80568842173341)"><path d="M291.4 -413.9C347.7 -360.2 342.6 -234.9 337.1 -136.7C331.6 -38.5 325.6 32.7 302.9 97.2C280.2 161.7 240.9 219.6 187.7 256C134.4 292.3 67.2 307.2 18.9 281.1C-29.4 255.1 -58.8 188.2 -139.8 160.9C-220.8 133.5 -353.4 145.7 -409.1 102.6C-464.7 59.5 -443.5 -38.8 -395.7 -110.9C-347.9 -182.9 -273.6 -228.6 -203.2 -277.7C-132.8 -326.8 -66.4 -379.4 25.6 -414.6C117.6 -449.8 235.1 -467.6 291.4 -413.9" fill="#4FACF7"></path></g></svg>