<svg id="visual" viewBox="0 0 900 600" width="900" height="600" xmlns="http://www.w3.org/2000/svg" xmlns:xlink="http://www.w3.org/1999/xlink" version="1.1"><rect x="0" y="0" width="900" height="600" fill="#FFFFFF"></rect><defs><linearGradient id="grad1_0" x1="33.3%" y1="0%" x2="100%" y2="100%"><stop offset="20%" stop-color="#4facf7" stop-opacity="1"></stop><stop offset="80%" stop-color="#4facf7" stop-opacity="1"></stop></linearGradient></defs><defs><linearGradient id="grad1_1" x1="33.3%" y1="0%" x2="100%" y2="100%"><stop offset="20%" stop-color="#4facf7" stop-opacity="1"></stop><stop offset="80%" stop-color="#88c0f9" stop-opacity="1"></stop></linearGradient></defs><defs><linearGradient id="grad1_2" x1="33.3%" y1="0%" x2="100%" y2="100%"><stop offset="20%" stop-color="#b4d4fc" stop-opacity="1"></stop><stop offset="80%" stop-color="#88c0f9" stop-opacity="1"></stop></linearGradient></defs><defs><linearGradient id="grad1_3" x1="33.3%" y1="0%" x2="100%" y2="100%"><stop offset="20%" stop-color="#b4d4fc" stop-opacity="1"></stop><stop offset="80%" stop-color="#dbe9fd" stop-opacity="1"></stop></linearGradient></defs><defs><linearGradient id="grad1_4" x1="33.3%" y1="0%" x2="100%" y2="100%"><stop offset="20%" stop-color="#ffffff" stop-opacity="1"></stop><stop offset="80%" stop-color="#dbe9fd" stop-opacity="1"></stop></linearGradient></defs><defs><linearGradient id="grad2_0" x1="0%" y1="0%" x2="66.7%" y2="100%"><stop offset="20%" stop-color="#4facf7" stop-opacity="1"></stop><stop offset="80%" stop-color="#4facf7" stop-opacity="1"></stop></linearGradient></defs><defs><linearGradient id="grad2_1" x1="0%" y1="0%" x2="66.7%" y2="100%"><stop offset="20%" stop-color="#88c0f9" stop-opacity="1"></stop><stop offset="80%" stop-color="#4facf7" stop-opacity="1"></stop></linearGradient></defs><defs><linearGradient id="grad2_2" x1="0%" y1="0%" x2="66.7%" y2="100%"><stop offset="20%" stop-color="#88c0f9" stop-opacity="1"></stop><stop offset="80%" stop-color="#b4d4fc" stop-opacity="1"></stop></linearGradient></defs><defs><linearGradient id="grad2_3" x1="0%" y1="0%" x2="66.7%" y2="100%"><stop offset="20%" stop-color="#dbe9fd" stop-opacity="1"></stop><stop offset="80%" stop-color="#b4d4fc" stop-opacity="1"></stop></linearGradient></defs><defs><linearGradient id="grad2_4" x1="0%" y1="0%" x2="66.7%" y2="100%"><stop offset="20%" stop-color="#dbe9fd" stop-opacity="1"></stop><stop offset="80%" stop-color="#ffffff" stop-opacity="1"></stop></linearGradient></defs><g transform="translate(900, 0)"><path d="M0 486.7C-65.8 481.7 -131.5 476.6 -186.3 449.7C-241 422.8 -284.8 374.2 -327.4 327.4C-370 280.6 -411.5 235.6 -437.9 181.4C-464.3 127.1 -475.5 63.6 -486.7 0L0 0Z" fill="#edf4fe"></path><path d="M0 389.4C-52.6 385.3 -105.2 381.3 -149 359.8C-192.8 338.3 -227.8 299.3 -261.9 261.9C-296 224.5 -329.2 188.5 -350.3 145.1C-371.4 101.7 -380.4 50.9 -389.4 0L0 0Z" fill="#c8dffd"></path><path d="M0 292C-39.5 289 -78.9 285.9 -111.8 269.8C-144.6 253.7 -170.9 224.5 -196.4 196.4C-222 168.4 -246.9 141.4 -262.8 108.8C-278.6 76.3 -285.3 38.1 -292 0L0 0Z" fill="#9fcafb"></path><path d="M0 194.7C-26.3 192.7 -52.6 190.6 -74.5 179.9C-96.4 169.1 -113.9 149.7 -131 131C-148 112.2 -164.6 94.3 -175.2 72.6C-185.7 50.9 -190.2 25.4 -194.7 0L0 0Z" fill="#6fb6f8"></path><path d="M0 97.3C-13.2 96.3 -26.3 95.3 -37.3 89.9C-48.2 84.6 -57 74.8 -65.5 65.5C-74 56.1 -82.3 47.1 -87.6 36.3C-92.9 25.4 -95.1 12.7 -97.3 0L0 0Z" fill="#4facf7"></path></g><g transform="translate(0, 600)"><path d="M0 -486.7C61.7 -467.3 123.4 -447.8 173 -417.6C222.6 -387.4 260.1 -346.6 309 -309C357.9 -271.5 418.2 -237.2 449.7 -186.3C481.2 -135.3 484 -67.7 486.7 0L0 0Z" fill="#edf4fe"></path><path d="M0 -389.4C49.3 -373.8 98.7 -358.2 138.4 -334.1C178.1 -309.9 208.1 -277.2 247.2 -247.2C286.3 -217.2 334.5 -189.8 359.8 -149C385 -108.3 387.2 -54.1 389.4 0L0 0Z" fill="#c8dffd"></path><path d="M0 -292C37 -280.4 74 -268.7 103.8 -250.6C133.5 -232.5 156.1 -207.9 185.4 -185.4C214.7 -162.9 250.9 -142.3 269.8 -111.8C288.7 -81.2 290.4 -40.6 292 0L0 0Z" fill="#9fcafb"></path><path d="M0 -194.7C24.7 -186.9 49.3 -179.1 69.2 -167C89 -155 104 -138.6 123.6 -123.6C143.2 -108.6 167.3 -94.9 179.9 -74.5C192.5 -54.1 193.6 -27.1 194.7 0L0 0Z" fill="#6fb6f8"></path><path d="M0 -97.3C12.3 -93.5 24.7 -89.6 34.6 -83.5C44.5 -77.5 52 -69.3 61.8 -61.8C71.6 -54.3 83.6 -47.4 89.9 -37.3C96.2 -27.1 96.8 -13.5 97.3 0L0 0Z" fill="#4facf7"></path></g></svg>