<svg id="visual" viewBox="0 0 900 600" width="900" height="600" xmlns="http://www.w3.org/2000/svg" xmlns:xlink="http://www.w3.org/1999/xlink" version="1.1"><rect x="0" y="0" width="900" height="600" fill="#6fa4e4"></rect><defs><linearGradient id="grad1_0" x1="33.3%" y1="0%" x2="100%" y2="100%"><stop offset="20%" stop-color="#4589c1" stop-opacity="1"></stop><stop offset="80%" stop-color="#4589c1" stop-opacity="1"></stop></linearGradient></defs><defs><linearGradient id="grad1_1" x1="33.3%" y1="0%" x2="100%" y2="100%"><stop offset="20%" stop-color="#4589c1" stop-opacity="1"></stop><stop offset="80%" stop-color="#4e8ec8" stop-opacity="1"></stop></linearGradient></defs><defs><linearGradient id="grad1_2" x1="33.3%" y1="0%" x2="100%" y2="100%"><stop offset="20%" stop-color="#5694cf" stop-opacity="1"></stop><stop offset="80%" stop-color="#4e8ec8" stop-opacity="1"></stop></linearGradient></defs><defs><linearGradient id="grad1_3" x1="33.3%" y1="0%" x2="100%" y2="100%"><stop offset="20%" stop-color="#5694cf" stop-opacity="1"></stop><stop offset="80%" stop-color="#5e99d6" stop-opacity="1"></stop></linearGradient></defs><defs><linearGradient id="grad1_4" x1="33.3%" y1="0%" x2="100%" y2="100%"><stop offset="20%" stop-color="#679fdd" stop-opacity="1"></stop><stop offset="80%" stop-color="#5e99d6" stop-opacity="1"></stop></linearGradient></defs><defs><linearGradient id="grad1_5" x1="33.3%" y1="0%" x2="100%" y2="100%"><stop offset="20%" stop-color="#679fdd" stop-opacity="1"></stop><stop offset="80%" stop-color="#6fa4e4" stop-opacity="1"></stop></linearGradient></defs><defs><linearGradient id="grad2_0" x1="0%" y1="0%" x2="66.7%" y2="100%"><stop offset="20%" stop-color="#4589c1" stop-opacity="1"></stop><stop offset="80%" stop-color="#4589c1" stop-opacity="1"></stop></linearGradient></defs><defs><linearGradient id="grad2_1" x1="0%" y1="0%" x2="66.7%" y2="100%"><stop offset="20%" stop-color="#4e8ec8" stop-opacity="1"></stop><stop offset="80%" stop-color="#4589c1" stop-opacity="1"></stop></linearGradient></defs><defs><linearGradient id="grad2_2" x1="0%" y1="0%" x2="66.7%" y2="100%"><stop offset="20%" stop-color="#4e8ec8" stop-opacity="1"></stop><stop offset="80%" stop-color="#5694cf" stop-opacity="1"></stop></linearGradient></defs><defs><linearGradient id="grad2_3" x1="0%" y1="0%" x2="66.7%" y2="100%"><stop offset="20%" stop-color="#5e99d6" stop-opacity="1"></stop><stop offset="80%" stop-color="#5694cf" stop-opacity="1"></stop></linearGradient></defs><defs><linearGradient id="grad2_4" x1="0%" y1="0%" x2="66.7%" y2="100%"><stop offset="20%" stop-color="#5e99d6" stop-opacity="1"></stop><stop offset="80%" stop-color="#679fdd" stop-opacity="1"></stop></linearGradient></defs><defs><linearGradient id="grad2_5" x1="0%" y1="0%" x2="66.7%" y2="100%"><stop offset="20%" stop-color="#6fa4e4" stop-opacity="1"></stop><stop offset="80%" stop-color="#679fdd" stop-opacity="1"></stop></linearGradient></defs><g transform="translate(900, 0)"><path d="M0 540.8C-57.3 536.6 -114.6 532.4 -167.1 514.4C-219.7 496.3 -267.5 464.3 -309.2 425.5C-350.8 386.8 -386.3 341.3 -402.1 292.1C-417.8 243 -413.8 190.2 -433.7 140.9C-453.5 91.6 -497.2 45.8 -540.8 0L0 0Z" fill="#6ba1e0"></path><path d="M0 450.7C-47.7 447.2 -95.5 443.7 -139.3 428.6C-183.1 413.6 -222.9 386.9 -257.6 354.6C-292.4 322.3 -321.9 284.4 -335.1 243.4C-348.2 202.5 -344.9 158.5 -361.4 117.4C-377.9 76.3 -414.3 38.2 -450.7 0L0 0Z" fill="#639cd9"></path><path d="M0 360.6C-38.2 357.8 -76.4 355 -111.4 342.9C-146.5 330.9 -178.3 309.5 -206.1 283.7C-233.9 257.9 -257.6 227.5 -268.1 194.8C-278.6 162 -275.9 126.8 -289.1 93.9C-302.3 61.1 -331.4 30.5 -360.6 0L0 0Z" fill="#5a96d2"></path><path d="M0 270.4C-28.6 268.3 -57.3 266.2 -83.6 257.2C-109.8 248.1 -133.8 232.1 -154.6 212.8C-175.4 193.4 -193.2 170.6 -201 146.1C-208.9 121.5 -206.9 95.1 -216.8 70.5C-226.8 45.8 -248.6 22.9 -270.4 0L0 0Z" fill="#5291cb"></path><path d="M0 180.3C-19.1 178.9 -38.2 177.5 -55.7 171.5C-73.2 165.4 -89.2 154.8 -103.1 141.8C-116.9 128.9 -128.8 113.8 -134 97.4C-139.3 81 -137.9 63.4 -144.6 47C-151.2 30.5 -165.7 15.3 -180.3 0L0 0Z" fill="#498cc4"></path><path d="M0 90.1C-9.5 89.4 -19.1 88.7 -27.9 85.7C-36.6 82.7 -44.6 77.4 -51.5 70.9C-58.5 64.5 -64.4 56.9 -67 48.7C-69.6 40.5 -69 31.7 -72.3 23.5C-75.6 15.3 -82.9 7.6 -90.1 0L0 0Z" fill="#4589c1"></path></g><g transform="translate(0, 600)"><path d="M0 -540.8C45 -505 89.9 -469.1 149.6 -460.3C209.2 -451.5 283.5 -469.9 317.9 -437.5C352.3 -405.2 346.8 -322.2 372.1 -270.4C397.5 -218.6 453.7 -198.1 486.9 -158.2C520.2 -118.4 530.5 -59.2 540.8 0L0 0Z" fill="#6ba1e0"></path><path d="M0 -450.7C37.5 -420.8 74.9 -390.9 124.6 -383.6C174.3 -376.3 236.2 -391.6 264.9 -364.6C293.6 -337.7 289 -268.5 310.1 -225.3C331.2 -182.2 378.1 -165.1 405.8 -131.8C433.5 -98.6 442.1 -49.3 450.7 0L0 0Z" fill="#639cd9"></path><path d="M0 -360.6C30 -336.6 60 -312.7 99.7 -306.9C139.5 -301 189 -313.3 211.9 -291.7C234.9 -270.1 231.2 -214.8 248.1 -180.3C265 -145.7 302.5 -132 324.6 -105.5C346.8 -78.9 353.7 -39.5 360.6 0L0 0Z" fill="#5a96d2"></path><path d="M0 -270.4C22.5 -252.5 45 -234.5 74.8 -230.2C104.6 -225.8 141.7 -234.9 158.9 -218.8C176.1 -202.6 173.4 -161.1 186.1 -135.2C198.7 -109.3 226.8 -99 243.5 -79.1C260.1 -59.2 265.3 -29.6 270.4 0L0 0Z" fill="#5291cb"></path><path d="M0 -180.3C15 -168.3 30 -156.4 49.9 -153.4C69.7 -150.5 94.5 -156.6 106 -145.8C117.4 -135.1 115.6 -107.4 124 -90.1C132.5 -72.9 151.2 -66 162.3 -52.7C173.4 -39.5 176.8 -19.7 180.3 0L0 0Z" fill="#498cc4"></path><path d="M0 -90.1C7.5 -84.2 15 -78.2 24.9 -76.7C34.9 -75.3 47.2 -78.3 53 -72.9C58.7 -67.5 57.8 -53.7 62 -45.1C66.2 -36.4 75.6 -33 81.2 -26.4C86.7 -19.7 88.4 -9.9 90.1 0L0 0Z" fill="#4589c1"></path></g></svg>